<mxfile host="app.diagrams.net" modified="2023-05-13T20:32:28.320Z" agent="Mozilla/5.0 (Windows NT 10.0; Win64; x64) AppleWebKit/537.36 (KHTML, like Gecko) Chrome/113.0.0.0 Safari/537.36" etag="1xDgXy93Pl2MeUutNpoT" version="21.2.3" type="github">
  <diagram id="C5RBs43oDa-KdzZeNtuy" name="Page-1">
    <mxGraphModel dx="1434" dy="796" grid="1" gridSize="10" guides="1" tooltips="1" connect="1" arrows="1" fold="1" page="1" pageScale="1" pageWidth="827" pageHeight="1169" math="0" shadow="0">
      <root>
        <mxCell id="WIyWlLk6GJQsqaUBKTNV-0" />
        <mxCell id="WIyWlLk6GJQsqaUBKTNV-1" parent="WIyWlLk6GJQsqaUBKTNV-0" />
        <mxCell id="e-kmSDoFwdAO5oXFJXU8-1" value="Embarcación" style="swimlane;fontStyle=0;childLayout=stackLayout;horizontal=1;startSize=30;horizontalStack=0;resizeParent=1;resizeParentMax=0;resizeLast=0;collapsible=1;marginBottom=0;whiteSpace=wrap;html=1;" vertex="1" parent="WIyWlLk6GJQsqaUBKTNV-1">
          <mxGeometry x="90" y="10" width="180" height="140" as="geometry" />
        </mxCell>
        <mxCell id="e-kmSDoFwdAO5oXFJXU8-6" value="+Vida;&lt;br&gt;&lt;br&gt;+Ubicación;&lt;br&gt;&lt;br&gt;+Estado;&lt;br&gt;&lt;br&gt;+Tipo;" style="rounded=0;whiteSpace=wrap;html=1;align=left;" vertex="1" parent="e-kmSDoFwdAO5oXFJXU8-1">
          <mxGeometry y="30" width="180" height="110" as="geometry" />
        </mxCell>
        <mxCell id="e-kmSDoFwdAO5oXFJXU8-7" value="Avion" style="swimlane;fontStyle=0;childLayout=stackLayout;horizontal=1;startSize=30;horizontalStack=0;resizeParent=1;resizeParentMax=0;resizeLast=0;collapsible=1;marginBottom=0;whiteSpace=wrap;html=1;" vertex="1" parent="WIyWlLk6GJQsqaUBKTNV-1">
          <mxGeometry x="370" y="10" width="140" height="160" as="geometry" />
        </mxCell>
        <mxCell id="e-kmSDoFwdAO5oXFJXU8-8" value="+Estado;" style="text;strokeColor=none;fillColor=none;align=left;verticalAlign=middle;spacingLeft=4;spacingRight=4;overflow=hidden;points=[[0,0.5],[1,0.5]];portConstraint=eastwest;rotatable=0;whiteSpace=wrap;html=1;" vertex="1" parent="e-kmSDoFwdAO5oXFJXU8-7">
          <mxGeometry y="30" width="140" height="30" as="geometry" />
        </mxCell>
        <mxCell id="e-kmSDoFwdAO5oXFJXU8-9" value="+Usos;" style="text;strokeColor=none;fillColor=none;align=left;verticalAlign=middle;spacingLeft=4;spacingRight=4;overflow=hidden;points=[[0,0.5],[1,0.5]];portConstraint=eastwest;rotatable=0;whiteSpace=wrap;html=1;" vertex="1" parent="e-kmSDoFwdAO5oXFJXU8-7">
          <mxGeometry y="60" width="140" height="20" as="geometry" />
        </mxCell>
        <mxCell id="e-kmSDoFwdAO5oXFJXU8-10" value="+Tipo;&lt;br&gt;&lt;br&gt;+Ubicacion;&lt;br&gt;&lt;br&gt;+Sonido;" style="text;strokeColor=none;fillColor=none;align=left;verticalAlign=middle;spacingLeft=4;spacingRight=4;overflow=hidden;points=[[0,0.5],[1,0.5]];portConstraint=eastwest;rotatable=0;whiteSpace=wrap;html=1;" vertex="1" parent="e-kmSDoFwdAO5oXFJXU8-7">
          <mxGeometry y="80" width="140" height="80" as="geometry" />
        </mxCell>
        <mxCell id="e-kmSDoFwdAO5oXFJXU8-11" value="+void usarAvion();&lt;br&gt;&lt;br&gt;+void setUbicacion();" style="rounded=0;whiteSpace=wrap;html=1;align=left;" vertex="1" parent="WIyWlLk6GJQsqaUBKTNV-1">
          <mxGeometry x="370" y="170" width="140" height="80" as="geometry" />
        </mxCell>
        <mxCell id="e-kmSDoFwdAO5oXFJXU8-5" value="+void editarUbicacion(int x, int y);&lt;br&gt;&lt;br&gt;+void setEstado (bool);&lt;br&gt;&lt;br&gt;+void setVida(int);&lt;br&gt;&lt;br&gt;+int getUbicacion();&lt;br&gt;&lt;br&gt;+int getVida();&lt;br&gt;&lt;br&gt;+int getTipo();" style="rounded=0;whiteSpace=wrap;html=1;align=left;" vertex="1" parent="WIyWlLk6GJQsqaUBKTNV-1">
          <mxGeometry x="90" y="150" width="180" height="170" as="geometry" />
        </mxCell>
        <mxCell id="e-kmSDoFwdAO5oXFJXU8-12" value="Elemento" style="swimlane;fontStyle=0;childLayout=stackLayout;horizontal=1;startSize=30;horizontalStack=0;resizeParent=1;resizeParentMax=0;resizeLast=0;collapsible=1;marginBottom=0;whiteSpace=wrap;html=1;" vertex="1" parent="WIyWlLk6GJQsqaUBKTNV-1">
          <mxGeometry x="580" y="10" width="160" height="90" as="geometry" />
        </mxCell>
        <mxCell id="e-kmSDoFwdAO5oXFJXU8-13" value="+Tipo" style="text;strokeColor=none;fillColor=none;align=left;verticalAlign=middle;spacingLeft=4;spacingRight=4;overflow=hidden;points=[[0,0.5],[1,0.5]];portConstraint=eastwest;rotatable=0;whiteSpace=wrap;html=1;" vertex="1" parent="e-kmSDoFwdAO5oXFJXU8-12">
          <mxGeometry y="30" width="160" height="30" as="geometry" />
        </mxCell>
        <mxCell id="e-kmSDoFwdAO5oXFJXU8-14" value="+Estado" style="text;strokeColor=none;fillColor=none;align=left;verticalAlign=middle;spacingLeft=4;spacingRight=4;overflow=hidden;points=[[0,0.5],[1,0.5]];portConstraint=eastwest;rotatable=0;whiteSpace=wrap;html=1;" vertex="1" parent="e-kmSDoFwdAO5oXFJXU8-12">
          <mxGeometry y="60" width="160" height="30" as="geometry" />
        </mxCell>
        <mxCell id="e-kmSDoFwdAO5oXFJXU8-16" value="+void ejecutarCinematica();" style="rounded=0;whiteSpace=wrap;html=1;align=left;" vertex="1" parent="WIyWlLk6GJQsqaUBKTNV-1">
          <mxGeometry x="580" y="100" width="160" height="60" as="geometry" />
        </mxCell>
        <mxCell id="e-kmSDoFwdAO5oXFJXU8-17" value="" style="endArrow=classic;html=1;rounded=0;" edge="1" parent="WIyWlLk6GJQsqaUBKTNV-1">
          <mxGeometry width="50" height="50" relative="1" as="geometry">
            <mxPoint x="130" y="320" as="sourcePoint" />
            <mxPoint x="60" y="390" as="targetPoint" />
            <Array as="points" />
          </mxGeometry>
        </mxCell>
        <mxCell id="e-kmSDoFwdAO5oXFJXU8-18" value="" style="endArrow=classic;html=1;rounded=0;" edge="1" parent="WIyWlLk6GJQsqaUBKTNV-1">
          <mxGeometry width="50" height="50" relative="1" as="geometry">
            <mxPoint x="439.5" y="250" as="sourcePoint" />
            <mxPoint x="439.5" y="320" as="targetPoint" />
          </mxGeometry>
        </mxCell>
        <mxCell id="e-kmSDoFwdAO5oXFJXU8-19" value="Submarino" style="swimlane;fontStyle=0;childLayout=stackLayout;horizontal=1;startSize=30;horizontalStack=0;resizeParent=1;resizeParentMax=0;resizeLast=0;collapsible=1;marginBottom=0;whiteSpace=wrap;html=1;" vertex="1" parent="WIyWlLk6GJQsqaUBKTNV-1">
          <mxGeometry x="10" y="400" width="140" height="90" as="geometry" />
        </mxCell>
        <mxCell id="e-kmSDoFwdAO5oXFJXU8-20" value="+Sprite;&lt;br&gt;&lt;br&gt;+Sonido;" style="text;strokeColor=none;fillColor=none;align=left;verticalAlign=middle;spacingLeft=4;spacingRight=4;overflow=hidden;points=[[0,0.5],[1,0.5]];portConstraint=eastwest;rotatable=0;whiteSpace=wrap;html=1;" vertex="1" parent="e-kmSDoFwdAO5oXFJXU8-19">
          <mxGeometry y="30" width="140" height="60" as="geometry" />
        </mxCell>
        <mxCell id="e-kmSDoFwdAO5oXFJXU8-23" value="Destructor" style="swimlane;fontStyle=0;childLayout=stackLayout;horizontal=1;startSize=30;horizontalStack=0;resizeParent=1;resizeParentMax=0;resizeLast=0;collapsible=1;marginBottom=0;whiteSpace=wrap;html=1;" vertex="1" parent="WIyWlLk6GJQsqaUBKTNV-1">
          <mxGeometry x="160" y="520" width="140" height="90" as="geometry" />
        </mxCell>
        <mxCell id="e-kmSDoFwdAO5oXFJXU8-24" value="+Sprite;&lt;br&gt;&lt;br&gt;+Sonido;" style="text;strokeColor=none;fillColor=none;align=left;verticalAlign=middle;spacingLeft=4;spacingRight=4;overflow=hidden;points=[[0,0.5],[1,0.5]];portConstraint=eastwest;rotatable=0;whiteSpace=wrap;html=1;" vertex="1" parent="e-kmSDoFwdAO5oXFJXU8-23">
          <mxGeometry y="30" width="140" height="60" as="geometry" />
        </mxCell>
        <mxCell id="e-kmSDoFwdAO5oXFJXU8-25" value="" style="endArrow=classic;html=1;rounded=0;" edge="1" parent="WIyWlLk6GJQsqaUBKTNV-1">
          <mxGeometry width="50" height="50" relative="1" as="geometry">
            <mxPoint x="179.5" y="320" as="sourcePoint" />
            <mxPoint x="180" y="510" as="targetPoint" />
          </mxGeometry>
        </mxCell>
        <mxCell id="e-kmSDoFwdAO5oXFJXU8-26" value="Fragata" style="swimlane;fontStyle=0;childLayout=stackLayout;horizontal=1;startSize=30;horizontalStack=0;resizeParent=1;resizeParentMax=0;resizeLast=0;collapsible=1;marginBottom=0;whiteSpace=wrap;html=1;" vertex="1" parent="WIyWlLk6GJQsqaUBKTNV-1">
          <mxGeometry x="10" y="660" width="140" height="90" as="geometry" />
        </mxCell>
        <mxCell id="e-kmSDoFwdAO5oXFJXU8-27" value="+Sprite;&lt;br&gt;&lt;br&gt;+Sonido;" style="text;strokeColor=none;fillColor=none;align=left;verticalAlign=middle;spacingLeft=4;spacingRight=4;overflow=hidden;points=[[0,0.5],[1,0.5]];portConstraint=eastwest;rotatable=0;whiteSpace=wrap;html=1;" vertex="1" parent="e-kmSDoFwdAO5oXFJXU8-26">
          <mxGeometry y="30" width="140" height="60" as="geometry" />
        </mxCell>
        <mxCell id="e-kmSDoFwdAO5oXFJXU8-28" value="" style="endArrow=classic;html=1;rounded=0;" edge="1" parent="WIyWlLk6GJQsqaUBKTNV-1">
          <mxGeometry width="50" height="50" relative="1" as="geometry">
            <mxPoint x="180" y="440" as="sourcePoint" />
            <mxPoint x="80" y="650" as="targetPoint" />
          </mxGeometry>
        </mxCell>
        <mxCell id="e-kmSDoFwdAO5oXFJXU8-29" value="Acorazado" style="swimlane;fontStyle=0;childLayout=stackLayout;horizontal=1;startSize=30;horizontalStack=0;resizeParent=1;resizeParentMax=0;resizeLast=0;collapsible=1;marginBottom=0;whiteSpace=wrap;html=1;" vertex="1" parent="WIyWlLk6GJQsqaUBKTNV-1">
          <mxGeometry x="190" y="660" width="140" height="90" as="geometry" />
        </mxCell>
        <mxCell id="e-kmSDoFwdAO5oXFJXU8-30" value="+Sprite;&lt;br&gt;&lt;br&gt;+Sonido;" style="text;strokeColor=none;fillColor=none;align=left;verticalAlign=middle;spacingLeft=4;spacingRight=4;overflow=hidden;points=[[0,0.5],[1,0.5]];portConstraint=eastwest;rotatable=0;whiteSpace=wrap;html=1;" vertex="1" parent="e-kmSDoFwdAO5oXFJXU8-29">
          <mxGeometry y="30" width="140" height="60" as="geometry" />
        </mxCell>
        <mxCell id="e-kmSDoFwdAO5oXFJXU8-31" value="" style="endArrow=classic;html=1;rounded=0;" edge="1" parent="WIyWlLk6GJQsqaUBKTNV-1">
          <mxGeometry width="50" height="50" relative="1" as="geometry">
            <mxPoint x="120" y="570" as="sourcePoint" />
            <mxPoint x="180" y="650" as="targetPoint" />
          </mxGeometry>
        </mxCell>
      </root>
    </mxGraphModel>
  </diagram>
</mxfile>
